<svg width="16" height="16" viewBox="0 0 16 16" fill="none" xmlns="http://www.w3.org/2000/svg">
<path d="M10.437 1.25C9.46533 1.57087 8.61523 2.18158 8.001 3C7.3865 2.18142 6.53602 1.57069 5.564 1.25C5.84159 0.862923 6.20747 0.547611 6.6313 0.330221C7.05512 0.11283 7.52467 -0.000373263 8.001 9.24631e-07C9.004 9.24631e-07 9.893 0.493001 10.437 1.25ZM1.627 9.22C1.90547 7.8357 2.62687 6.57963 3.68224 5.64152C4.7376 4.70342 6.0696 4.13425 7.477 4.02C7.18216 3.50246 6.77547 3.05729 6.28661 2.71701C5.79776 2.37672 5.23907 2.14991 4.65136 2.05312C4.06364 1.95634 3.46173 1.99203 2.88957 2.15759C2.31741 2.32315 1.78945 2.6144 1.34423 3.01008C0.899017 3.40575 0.547783 3.89586 0.31618 4.44461C0.0845758 4.99337 -0.0215519 5.58693 0.00554568 6.18194C0.0326433 6.77696 0.192282 7.35841 0.472806 7.88384C0.75333 8.40928 1.14766 8.86543 1.627 9.219V9.22ZM14.374 9.22C14.8533 8.86643 15.2477 8.41028 15.5282 7.88484C15.8087 7.35941 15.9683 6.77796 15.9954 6.18294C16.0225 5.58793 15.9164 4.99437 15.6848 4.44561C15.4532 3.89686 15.102 3.40675 14.6568 3.01108C14.2115 2.6154 13.6836 2.32415 13.1114 2.15859C12.5393 1.99303 11.9373 1.95734 11.3496 2.05412C10.7619 2.15091 10.2032 2.37772 9.71438 2.71801C9.22552 3.05829 8.81883 3.50346 8.524 4.021C9.93126 4.1352 11.2631 4.70422 12.3185 5.64213C13.3738 6.58004 14.0953 7.83589 14.374 9.22ZM13.5 10.5C13.5 11.9587 12.9205 13.3576 11.8891 14.3891C10.8576 15.4205 9.45869 16 8 16C6.54131 16 5.14236 15.4205 4.11091 14.3891C3.07946 13.3576 2.5 11.9587 2.5 10.5C2.5 9.04131 3.07946 7.64236 4.11091 6.61091C5.14236 5.57946 6.54131 5 8 5C9.45869 5 10.8576 5.57946 11.8891 6.61091C12.9205 7.64236 13.5 9.04131 13.5 10.5ZM6 8.5C6 8.63261 6.05267 8.75979 6.14644 8.85355C6.24021 8.94732 6.36739 9 6.5 9H8.74C8.638 9.146 8.53 9.31 8.42 9.485C7.937 10.257 7.392 11.331 7.254 12.438C7.24417 12.5039 7.24762 12.5712 7.26415 12.6357C7.28068 12.7003 7.30995 12.7609 7.35025 12.814C7.39055 12.8671 7.44105 12.9116 7.4988 12.9449C7.55655 12.9782 7.62037 12.9996 7.68651 13.0079C7.75265 13.0161 7.81978 13.0111 7.88395 12.9931C7.94811 12.975 8.00802 12.9443 8.06015 12.9028C8.11228 12.8612 8.15557 12.8097 8.18749 12.7511C8.2194 12.6926 8.2393 12.6283 8.246 12.562C8.358 11.669 8.813 10.743 9.268 10.015C9.5234 9.60782 9.805 9.21767 10.111 8.847L10.123 8.833L10.127 8.829C10.1902 8.75666 10.2312 8.66763 10.2452 8.57258C10.2591 8.47753 10.2454 8.38047 10.2056 8.29302C10.1659 8.20556 10.1017 8.13142 10.0209 8.07946C9.94013 8.02749 9.84607 7.99991 9.75 8H6.5C6.36739 8 6.24021 8.05268 6.14644 8.14645C6.05267 8.24022 6 8.36739 6 8.5Z" fill="white" fill-opacity="0.87"/>
</svg>
